<svg xmlns="http://www.w3.org/2000/svg" width="24" height="24" viewBox="0 0 24 24" fill="none" stroke="currentColor" stroke-width="2" stroke-linecap="round" stroke-linejoin="round" class="lucide lucide-headphones w-8 h-8 text-white" data-lov-id="src/components/AboutSection.tsx:91:18" data-lov-name="feature.icon" data-component-path="src/components/AboutSection.tsx" data-component-line="91" data-component-file="AboutSection.tsx" data-component-name="feature.icon" data-component-content="%7B%22className%22%3A%22w-8%20h-8%20text-white%22%7D"><path d="M3 14h3a2 2 0 0 1 2 2v3a2 2 0 0 1-2 2H5a2 2 0 0 1-2-2v-7a9 9 0 0 1 18 0v7a2 2 0 0 1-2 2h-1a2 2 0 0 1-2-2v-3a2 2 0 0 1 2-2h3"></path></svg>